<svg xmlns="http://www.w3.org/2000/svg" width="100" height="100" fill="none" viewBox="0 0 100 100"><path fill="#fff" d="M49.54 17.32a32.26 32.26 0 0 0-32.22 32.22 32.26 32.26 0 0 0 32.22 32.22 32.26 32.26 0 0 0 32.22-32.22 32.26 32.26 0 0 0-32.22-32.22Zm0 48.9a16.67 16.67 0 1 1 0-33.35 16.67 16.67 0 0 1 0 33.35Z"/><path fill="url(#a)" fill-rule="evenodd" d="M52.24 12.03V0a49.62 49.62 0 0 1 0 99.08V87.05a37.66 37.66 0 0 0 34.92-37.5 37.66 37.66 0 0 0-34.92-37.52ZM21.13 74.14a37.46 37.46 0 0 1-9.1-21.9H0a49.4 49.4 0 0 0 12.6 30.42l8.52-8.52Zm25.71 24.94V87.05a37.43 37.43 0 0 1-21.9-9.09l-8.52 8.52a49.4 49.4 0 0 0 30.42 12.6Z" clip-rule="evenodd"/><defs><linearGradient id="a" x1="54.19" x2="5.42" y1="6.97" y2="55.73" gradientUnits="userSpaceOnUse"><stop stop-color="#0096FF"/><stop offset="1" stop-color="#FF1E56"/></linearGradient></defs></svg>
