<svg xmlns="http://www.w3.org/2000/svg" width="159" height="195" viewBox="0 0 159 195"><style>path#s{fill:#2D3748}@media (prefers-color-scheme:dark){path#s{fill:#fff}}</style><path id="s" fill-rule="evenodd" d="M2.4 123.37a9.63 9.63 0 0 0 .07 10.19l35.63 56.2a9.63 9.63 0 0 0 10.9 4.06l102.8-30.84a9.63 9.63 0 0 0 5.98-13.26L91.7 6.37a9.63 9.63 0 0 0-16.97-1l-72.33 118Zm87.54-84.23a3.61 3.61 0 0 0-6.86.73L57.64 166.54a3.61 3.61 0 0 0 4.58 4.18l71.02-21.2a3.61 3.61 0 0 0 2.28-4.9L89.94 39.14Z" clip-rule="evenodd"/></svg>
