<svg xmlns="http://www.w3.org/2000/svg" width="100" height="100" fill="none" viewBox="0 0 100 100"><style>path#s{fill:#000}@media (prefers-color-scheme:dark){path#s{fill:#fff}}</style><path id="s" d="M49.96 17.48A32.54 32.54 0 0 0 17.46 50a32.54 32.54 0 0 0 32.5 32.52A32.54 32.54 0 0 0 82.46 50a32.54 32.54 0 0 0-32.5-32.52Zm0 49.35a16.82 16.82 0 1 1 .01-33.64 16.82 16.82 0 0 1 0 33.64Z" /><path fill="url(#a)" fill-rule="evenodd" d="M52.68 12.14V0A50.06 50.06 0 0 1 100 50a50.06 50.06 0 0 1-47.32 50V87.86A38 38 0 0 0 87.9 50a38 38 0 0 0-35.22-37.86ZM21.3 74.83a37.82 37.82 0 0 1-9.16-22.1H0a49.88 49.88 0 0 0 12.71 30.69l8.59-8.6ZM47.24 100V87.86a37.73 37.73 0 0 1-22.1-9.18l-8.58 8.6A49.8 49.8 0 0 0 47.23 100Z" clip-rule="evenodd"/><defs><linearGradient id="a" x1="54.64" x2="5.43" y1="7.03" y2="56.21" gradientUnits="userSpaceOnUse"><stop stop-color="#0096ff"/><stop offset="1" stop-color="#ff1e56"/></linearGradient></defs></svg>
